<?xml version="1.0" encoding="UTF-8" standalone="no"?>
<svg width="499px" height="108px" viewBox="0 0 499 108" version="1.1" xmlns="http://www.w3.org/2000/svg" xmlns:xlink="http://www.w3.org/1999/xlink">
    <!-- Generator: Sketch 3.7 (28169) - http://www.bohemiancoding.com/sketch -->
    <title>Mix - Alter</title>
    <desc>Created with Sketch.</desc>
    <defs></defs>
    <g id="Page-1" stroke="none" stroke-width="1" fill="none" fill-rule="evenodd">
        <g id="Mix---Alter">
            <path d="M26.2,51.7 C12.5,51.7 3,58.5 3,69.9 C3,88.5 30.8,85.5 30.8,91.7 C30.8,93.4 29,94.2 26.3,94.2 C20.3,94.2 13.4,91.9 6.6,87.5 L0.4,100.2 C7.5,105.3 16.4,107.9 26,107.9 C40.2,107.9 49.9,101.1 49.9,89.9 C49.9,71.3 21.5,74 21.5,67.9 C21.5,66.2 23.1,65.3 25.6,65.3 C29.9,65.3 36,67.2 43.4,71 L50.1,58.3 C42.7,54 34.4,51.7 26.2,51.7 L26.2,51.7 L26.2,51.7 L26.2,51.7 Z M77.3,52.6 L57.1,52.6 L57.1,107 L77.3,107 L77.3,81 C77.3,73.1 84,68.7 94.4,70 L94.4,51.8 C87,51.8 81.1,55.2 77.3,61.2 L77.3,52.6 L77.3,52.6 L77.3,52.6 Z M120.2,107 L120.2,52.6 L100,52.6 L100,107 L120.2,107 L120.2,107 L120.2,107 Z M155.7,88.1 L165.6,107 L189.5,107 L169.5,73.6 L189.4,52.6 L166.6,52.6 L151.6,68.9 L151.6,32.8 L131.4,32.8 L131.4,107 L151.6,107 L151.6,92.4 L155.7,88.1 L155.7,88.1 L155.7,88.1 Z M217.7,51.8 C209.2,51.8 200.4,53.8 191.5,57.4 L196.5,70.8 C202.5,68.2 208.6,66.9 212.9,66.9 C219.1,66.9 222.3,69.6 222.3,74.1 L222.3,74.3 L209,74.3 C195.3,74.5 188,80.3 188,90.8 C188,101 194.8,107.9 206.4,107.9 C213.6,107.9 219,105.4 222.3,101 L222.3,107 L242.1,107 L242.1,71.7 C242.1,59.1 233,51.8 217.7,51.8 L217.7,51.8 L217.7,51.8 L217.7,51.8 Z M213.1,94.7 C209.2,94.7 207,92.7 207,89.3 C207,85.9 209.1,84.2 213.1,84.2 L222.3,84.2 L222.3,89.1 C220.8,92.5 217.2,94.7 213.1,94.7 L213.1,94.7 L213.1,94.7 L213.1,94.7 Z M288.8,51.8 C281.2,51.8 275.3,55 271.5,61 L271.5,52.6 L251.3,52.6 L251.3,107 L271.5,107 L271.5,80.1 C271.5,73.9 274.9,69.6 280.4,69.5 C285.1,69.5 288.2,72.9 288.2,78.3 L288.2,107 L308.4,107 L308.4,72.5 C308.4,59.9 300.4,51.8 288.8,51.8 L288.8,51.8 L288.8,51.8 L288.8,51.8 Z M373.7,32.8 L353.5,32.8 L353.5,58.9 C349.8,54.4 344.5,51.9 338.1,51.9 C323.2,51.9 313.4,62.8 313.4,79.5 C313.4,96.6 323.4,107.7 338.6,107.7 C344.8,107.7 349.9,105.2 353.5,100.8 L353.5,107 L373.7,107 L373.7,32.8 L373.7,32.8 L373.7,32.8 Z M343.7,92.2 C337.7,92.2 333.8,87.3 333.8,80 C333.8,72.8 337.7,67.9 343.7,67.9 C349.6,67.9 353.5,72.8 353.5,80 C353.5,87.3 349.6,92.2 343.7,92.2 L343.7,92.2 L343.7,92.2 L343.7,92.2 Z M409.4,51.9 C392.2,51.9 380.7,63 380.7,80 C380.7,96.7 391.8,107.7 410,107.7 C420.3,107.7 428.5,104.2 434.2,97.9 L423.7,87.6 C420.1,90.9 416,92.8 411.7,92.8 C406.5,92.8 402.7,89.9 401.1,84.7 L437.7,84.7 C438.9,64.7 428.5,51.9 409.4,51.9 L409.4,51.9 L409.4,51.9 L409.4,51.9 Z M400.7,74.8 C401.7,69.3 404.9,65.6 409.6,65.6 C414.5,65.6 417.9,69.4 417.8,74.8 L400.7,74.8 L400.7,74.8 L400.7,74.8 Z M478.2,107 L498.5,52.6 L478.3,52.6 L468.2,88.6 L458.2,52.6 L437.4,52.6 L457.6,107 L478.2,107 L478.2,107 L478.2,107 Z" id="srikandev" fill="#4A423C"></path>
            <path d="M101.858031,36.2397912 C93.7966106,34.3364266 86.8622717,28.1114067 83.7896213,18.5198846 L83.789621,18.5198836 C84.6381025,18.169932 85.5188211,17.8707057 86.4291301,17.6267892 C93.1169476,15.8347939 99.9142742,17.4267397 105.003188,21.3530488 C109.338337,11.5778853 117.893805,3.77628829 129.027105,0.793129643 L130.017218,4.48828213 C134.04645,19.5255817 126.342985,32.5706228 113.453871,36.0242505 C113.365931,36.0478139 113.277977,36.0708699 113.190012,36.0934196 C111.27032,36.5855293 109.345303,36.8365029 107.44622,36.8572588 C105.547137,36.8780146 103.673988,36.6685527 101.858031,36.2397912 L101.858031,36.2397912 Z" id="Combined-Shape" fill="#FF2150"></path>
        </g>
    </g>
</svg>